<svg width="63" height="63" viewBox="0 0 63 63" fill="none" xmlns="http://www.w3.org/2000/svg">
<path d="M46.6182 5.95178C45.2354 7.33503 44.4584 9.2109 44.4584 11.1665C44.4584 13.1225 45.2354 14.9984 46.6183 16.3817C48.0015 17.7644 49.8774 18.5414 51.8334 18.5414C53.789 18.5414 55.6648 17.7644 57.0481 16.3816C57.0481 16.3816 57.0481 16.3816 57.0481 16.3816M46.6182 5.95178L59.4583 11.1665C59.4583 13.1888 58.655 15.1283 57.2249 16.5584L57.0481 16.3816M46.6182 5.95178C48.0015 4.56856 49.8773 3.79155 51.8334 3.79155C53.7886 3.79362 55.6632 4.57148 57.046 5.95388M46.6182 5.95178L59.2083 11.1668M57.0481 16.3816C58.4313 14.9984 59.2082 13.1227 59.2083 11.1668M57.0481 16.3816L59.2083 11.1668M59.2083 11.1668C59.2063 9.21142 58.4284 7.33676 57.046 5.95388M57.046 5.95388L57.2228 5.77708L57.046 5.95383C57.046 5.95384 57.046 5.95386 57.046 5.95388ZM51.8334 21.5838H51.8336C54.595 21.5808 57.243 20.4822 59.1956 18.5296L59.1956 18.5295C61.1482 16.5765 62.2468 13.929 62.2498 11.1672V11.1669C62.2498 8.40423 61.1525 5.75492 59.199 3.80136C57.2454 1.8478 54.5961 0.750488 51.8334 0.750488C49.0707 0.750488 46.4209 1.84779 44.4678 3.80138C42.5143 5.75492 41.4165 8.40421 41.4165 11.1669C41.4165 13.9296 42.5142 16.5794 44.4678 18.5325C46.4209 20.4861 49.0707 21.5838 51.8334 21.5838Z" fill="#B5B5B6" stroke="#B5B5B6" stroke-width="0.5"/>
<path d="M46.75 18.5415H46.5V18.7915V39.125C46.5 39.9647 47.1808 40.646 48.021 40.646H55.6459C56.0494 40.646 56.4358 40.4855 56.7212 40.2006L56.7213 40.2005C57.0066 39.9152 57.1664 39.5282 57.1664 39.125V18.7915V18.5415H56.9164H54.3749H54.1249V18.7915V37.6039H49.5415V18.7915V18.5415H49.2915H46.75Z" fill="#B5B5B6" stroke="#B5B5B6" stroke-width="0.5"/>
<path d="M50.8901 10.7757C50.7322 11.1572 50.8197 11.5964 51.1116 11.8884C51.1116 11.8884 51.1116 11.8884 51.1116 11.8884L50.9348 12.0651C51.2982 12.4285 51.845 12.5374 52.3198 12.3409L50.8901 10.7757ZM50.8901 10.7757C51.0484 10.3944 51.4206 10.1459 51.8335 10.1459C52.1041 10.1459 52.3635 10.2532 52.5553 10.4446L50.8901 10.7757ZM48.9607 14.0392C49.7224 14.8009 50.7558 15.2289 51.8335 15.2289C52.9107 15.2289 53.944 14.801 54.7057 14.0393C55.4679 13.2776 55.8959 12.2442 55.8959 11.1665C55.8959 10.0893 55.468 9.05596 54.7058 8.29423C53.9441 7.53202 52.9107 7.104 51.8335 7.104C50.7558 7.104 49.7224 7.53202 48.9607 8.29422C48.199 9.05589 47.771 10.0892 47.771 11.1665C47.771 12.2442 48.1991 13.2775 48.9607 14.0392Z" fill="#B5B5B6" stroke="#B5B5B6" stroke-width="0.5"/>
<path d="M50.562 13.459H50.312V13.709V20.063V20.313H50.562H53.1035H53.3535V20.063V13.709V13.459H53.1035H50.562Z" fill="#B5B5B6" stroke="#B5B5B6" stroke-width="0.5"/>
<path d="M48.021 23.625H47.771V23.875V26.4165V26.6665H48.021H55.6459H55.8959V26.4165V23.875V23.625H55.6459H48.021Z" fill="#B5B5B6" stroke="#B5B5B6" stroke-width="0.5"/>
<path d="M46.9453 39.8467L46.7685 40.0234L46.9453 40.2002L50.7578 44.0127C51.0431 44.298 51.43 44.4577 51.8329 44.4582L51.8335 44.4582C52.2365 44.4577 52.623 44.2979 52.9082 44.0127L56.7207 40.2002L56.8974 40.0234L56.7207 39.8467L54.9238 38.0498L54.747 37.873L54.5702 38.0498L51.8332 40.7868L49.0957 38.0498L48.9189 37.873L48.7422 38.0498L46.9453 39.8467Z" fill="#B5B5B6" stroke="#B5B5B6" stroke-width="0.5"/>
<path d="M3.34587 18.9871L3.34597 18.9872L44.0131 59.6542L44.0132 59.6543C44.4474 60.0891 44.5778 60.7429 44.3426 61.3112C44.1073 61.8795 43.5528 62.2502 42.9377 62.2502H42.8341L42.8334 62.2495H2.27097C1.43083 62.2495 0.75 61.5687 0.75 60.7285V20.0626C0.75 19.4474 1.12071 18.8929 1.68899 18.6577L3.34587 18.9871ZM3.34587 18.9871C2.91107 18.5528 2.25732 18.4224 1.68901 18.6577L3.34587 18.9871ZM3.79107 23.7342L39.2649 59.208H3.79107V23.7342Z" fill="#B5B5B6" stroke="#B5B5B6" stroke-width="0.5"/>
<path d="M8.62497 55.896H26.7565L26.7551 55.8968L27.6874 55.896C28.3121 55.8955 28.8727 55.5137 29.1019 54.9327L29.1019 54.9326C29.3167 54.3867 29.1976 53.7694 28.804 53.3433V53.3371L28.7246 53.263L9.66223 35.4718L9.66202 35.4716C9.21923 35.0593 8.57417 34.9482 8.01906 35.1895C7.46331 35.4305 7.10451 35.9785 7.104 36.5836V36.5838V54.375C7.104 55.2147 7.78525 55.896 8.62497 55.896ZM10.1462 40.082L23.8289 52.854H10.1462V40.082Z" fill="#B5B5B6" stroke="#B5B5B6" stroke-width="0.5"/>
<path d="M8.625 19.0412H8.875V18.7912V4.81247C8.875 4.24884 9.33202 3.7915 9.89597 3.7915H42.937H43.187V3.5415V1V0.75H42.937H9.89597C8.81828 0.75 7.78496 1.178 7.02323 1.93973L7.02318 1.93978C6.26151 2.70186 5.8335 3.73518 5.8335 4.81247V18.7912V19.0412H6.0835H8.625Z" fill="#B5B5B6" stroke="#B5B5B6" stroke-width="0.5"/>
<path d="M38.874 53.1035V53.3535H39.124H58.1864C59.2636 53.3535 60.2969 52.9255 61.0591 52.1639L61.0591 52.1638C61.8208 51.4021 62.2488 50.3688 62.2488 49.2911V20.0625V19.8125H61.9988H59.4573H59.2073V20.0625V49.2911C59.2073 49.5617 59.0997 49.8215 58.9083 50.013C58.7168 50.2044 58.457 50.312 58.1864 50.312H39.124H38.874V50.562V53.1035Z" fill="#B5B5B6" stroke="#B5B5B6" stroke-width="0.5"/>
<path d="M7.35352 7.104H7.10352V7.354V9.89551V10.1455H7.35352H39.1245H39.3745V9.89551V7.354V7.104H39.1245H7.35352Z" fill="#B5B5B6" stroke="#B5B5B6" stroke-width="0.5"/>
<path d="M52.0833 44.4583H51.8333H36.5834C35.5057 44.4583 34.4723 44.0303 33.7106 43.2681C32.9489 42.5064 32.5209 41.4731 32.5209 40.3958V35.3124C32.5209 35.0418 32.4132 34.782 32.2218 34.5905C32.0304 34.3991 31.7706 34.2914 31.4999 34.2914H27.6875C26.6102 34.2914 25.5769 33.8634 24.8148 33.1018L24.8147 33.1017C24.053 32.34 23.625 31.3067 23.625 30.229V26.4165C23.625 25.5767 24.3059 24.896 25.146 24.896H31.4999C31.7706 24.896 32.0304 24.7883 32.2218 24.5969C32.4132 24.4054 32.5209 24.1457 32.5209 23.875V21.3335V21.0835H32.7709H35.3124H35.5624V21.3335V23.875C35.5624 24.9523 35.1344 25.9856 34.3727 26.7477L34.3726 26.7478C33.6105 27.5095 32.5772 27.9375 31.4999 27.9375H26.6665V30.229C26.6665 30.4996 26.7742 30.7594 26.9656 30.9508C27.157 31.1423 27.4168 31.2499 27.6875 31.2499H31.4999C32.5772 31.2499 33.6106 31.678 34.3726 32.4396L34.3727 32.4397C35.1344 33.2018 35.5624 34.2351 35.5624 35.3124V40.3958C35.5624 40.6663 35.6699 40.9257 35.8615 41.1177L52.0833 44.4583ZM52.0833 44.4583V44.2083M52.0833 44.4583V44.2083M52.0833 44.2083V41.6664V41.4164M52.0833 44.2083V41.4164M52.0833 41.4164H51.8333M52.0833 41.4164H51.8333M51.8333 41.4164H36.5834C36.3126 41.4164 36.0529 41.3091 35.8617 41.1179L51.8333 41.4164Z" fill="#B5B5B6" stroke="#B5B5B6" stroke-width="0.5"/>
<path d="M25.3959 27.9375H25.1459H18.7915C17.7142 27.9375 16.6808 27.5095 15.9192 26.7477C15.157 25.9856 14.729 24.9523 14.729 23.875V21.3335V21.0835H14.979H17.5205H17.7705V21.3335V23.625H17.7709V23.875C17.7709 24.1458 17.8783 24.4056 18.0696 24.5968C18.0696 24.5969 18.0696 24.5969 18.0696 24.5969M25.3959 27.9375L18.7915 25.146C18.4545 25.146 18.1315 25.0119 17.8928 24.7737L18.0696 24.5969M25.3959 27.9375L25.3959 27.6874L25.3954 25.1459L25.3954 24.896H25.1454H18.7915C18.521 24.896 18.2616 24.7884 18.0696 24.5969M25.3959 27.9375L18.0696 24.5969" fill="#B5B5B6" stroke="#B5B5B6" stroke-width="0.5"/>
<path d="M12.4786 13.749L12.4785 13.7491C11.4786 14.7495 10.9165 16.1057 10.9165 17.5205C10.9165 18.9347 11.4786 20.2914 12.4786 21.2914C13.479 22.2919 14.8357 22.8535 16.2499 22.8535C17.6642 22.8535 19.0209 22.2919 20.0213 21.2914C21.0213 20.2914 21.5834 18.9347 21.5834 17.5205C21.5834 16.1057 21.0213 14.7495 20.0214 13.7491L20.0213 13.749C19.0209 12.7491 17.6642 12.187 16.2499 12.187C14.8356 12.187 13.479 12.7491 12.4786 13.749ZM14.6295 19.1406L14.6294 19.1405C14.1998 18.7109 13.9584 18.1281 13.9584 17.5204C13.9584 16.9123 14.1998 16.3295 14.6294 15.8999C15.0591 15.4702 15.6423 15.2285 16.2499 15.2285C16.8576 15.2285 17.4408 15.4702 17.8705 15.8999C18.3001 16.3296 18.5414 16.9123 18.5414 17.5204C18.5414 18.1281 18.3001 18.7109 17.8705 19.1405L17.8704 19.1406C17.4408 19.5706 16.8577 19.8119 16.2499 19.8119C15.6421 19.8119 15.0591 19.5706 14.6295 19.1406Z" fill="#FF007A" stroke="#FF007A" stroke-width="0.5"/>
<path d="M30.2701 13.7491L30.2701 13.7491C29.2696 14.7495 28.708 16.1057 28.708 17.5205C28.708 18.9347 29.2696 20.2913 30.27 21.2914C31.2701 22.2919 32.6268 22.8535 34.041 22.8535C35.4557 22.8535 36.812 22.2918 37.8124 21.2914C38.8124 20.2914 39.3745 18.9347 39.3745 17.5205C39.3745 16.1057 38.8124 14.7495 37.8124 13.7491L37.8124 13.749C36.812 12.7491 35.4558 12.187 34.041 12.187C32.6267 12.187 31.2701 12.7491 30.2701 13.7491ZM32.4208 15.9L32.4209 15.8999C32.8507 15.4702 33.4334 15.2285 34.041 15.2285C34.649 15.2285 35.2318 15.4702 35.6615 15.8999C36.0913 16.3296 36.3329 16.9124 36.3329 17.5204C36.3329 18.128 36.0913 18.7108 35.6615 19.1405L35.6615 19.1406C35.2318 19.5706 34.6492 19.8119 34.041 19.8119C33.4334 19.8119 32.8506 19.5706 32.421 19.1406L32.4208 19.1405C31.9908 18.7108 31.7495 18.1281 31.7495 17.5204C31.7495 16.9123 31.9908 16.3296 32.4208 15.9Z" fill="#FF007A" stroke="#FF007A" stroke-width="0.5"/>
</svg>
