<svg width="91" height="42" viewBox="0 0 91 42" fill="none" xmlns="http://www.w3.org/2000/svg">
<path fill-rule="evenodd" clip-rule="evenodd" d="M24.2759 2.03054e-05C23.6719 -0.00256421 23.0918 0.241668 22.6642 0.678463C22.2372 1.1146 21.9981 1.70775 22 2.3248V6.0154C22.0025 6.62986 22.2435 7.21784 22.6705 7.65011C23.0975 8.08302 23.675 8.32466 24.2759 8.32208C25.5233 8.3195 26.5341 7.28892 26.5387 6.01545V4.63144H62.8702V31.6064H44.2996C43.321 28.2684 40.2682 25.8126 36.697 25.8126C33.1255 25.8126 30.0823 28.2686 29.1076 31.6064H24.2768C23.6727 31.6038 23.0926 31.848 22.665 32.2848C22.238 32.7209 21.9989 33.3141 22.0008 33.9311C22.0034 34.5456 22.2444 35.1336 22.6713 35.5658C23.0983 35.9987 23.6758 36.2404 24.2768 36.2378H29.1209C30.1102 39.5557 33.142 42 36.697 42C40.2519 42 43.2932 39.5557 44.2863 36.2378H69.3521C70.3452 39.5557 73.3865 42 76.9415 42C80.4964 42 83.5283 39.5557 84.5176 36.2378H88.7418C89.9873 36.2326 90.9956 35.2027 91 33.9312V20.3761C91.0025 19.9341 90.881 19.5012 90.6508 19.1277L83.1361 7.11044C82.718 6.44945 81.9988 6.0508 81.2277 6.05209H67.4039V2.32526C67.4064 1.7082 67.1673 1.11506 66.7403 0.678925C66.3127 0.242146 65.7326 -0.00209567 65.1279 0.000484711L24.2759 2.03054e-05ZM67.4037 10.6831H79.9878L86.4658 21.0405V31.606H84.5308C83.5561 28.2681 80.5129 25.8122 76.9415 25.8122C73.37 25.8122 70.3174 28.2682 69.3388 31.606H67.4039L67.4037 10.6831ZM36.6965 30.4437C38.5998 30.4437 40.0927 31.9647 40.0927 33.8993C40.0927 35.8338 38.5999 37.3684 36.6965 37.3684C34.7931 37.3684 33.2958 35.8338 33.2958 33.8993C33.2958 31.9647 34.7931 30.4437 36.6965 30.4437ZM76.942 30.4437C78.8453 30.4437 80.3249 31.9647 80.3249 33.8993C80.3249 35.8338 78.8454 37.3684 76.942 37.3684C75.0386 37.3684 73.5457 35.8338 73.5457 33.8993C73.5457 31.9647 75.0386 30.4437 76.942 30.4437Z" fill="#B5B5B6"/>
<path d="M17.7919 10.6743C18.2065 10.2399 18.7672 9.99743 19.3507 10H32.7902C33.3743 9.99743 33.935 10.2399 34.3496 10.6743C34.7641 11.108 34.9981 11.698 35 12.3145C35.0024 12.9337 34.7703 13.5288 34.3557 13.9664C33.9405 14.4047 33.3773 14.6498 32.7902 14.6472H19.3507C18.7642 14.6498 18.201 14.4047 17.7858 13.9664C17.3712 13.5288 17.1391 12.9337 17.1409 12.3145C17.1434 11.698 17.3774 11.108 17.7919 10.6743Z" fill="#FF007A"/>
<path d="M9.21755 18.3504C9.62966 17.9128 10.1898 17.6664 10.7739 17.6651L28.4999 17.6652C29.0871 17.6626 29.6503 17.9077 30.0655 18.346C30.48 18.7836 30.7122 19.3787 30.7097 19.9979C30.7091 20.6151 30.4751 21.2063 30.0606 21.6414C29.646 22.0764 29.0846 22.3195 28.4999 22.3169H10.7739C9.5621 22.3142 8.57942 21.2776 8.57697 19.9978C8.57513 19.3806 8.80544 18.788 9.21755 18.3504Z" fill="#FF007A"/>
<path d="M0.638754 26.0401C1.05025 25.6025 1.60916 25.3555 2.19262 25.3529L24.2094 25.3528C24.7965 25.3502 25.3597 25.5953 25.7749 26.0336C26.1895 26.4712 26.4216 27.0663 26.4192 27.6855C26.4173 28.302 26.1833 28.892 25.7688 29.3257C25.3542 29.7601 24.7934 30.0026 24.2094 30H2.19257C0.983919 29.9948 0.00492437 28.9614 1.09649e-05 27.6855C-0.00182861 27.069 0.227867 26.4771 0.638754 26.0401Z" fill="#FF007A"/>
</svg>
