<svg width="34" height="25" viewBox="0 0 34 25" fill="none" xmlns="http://www.w3.org/2000/svg">
<path d="M5.99988 12.5C5.99988 11.6716 6.67145 11 7.49988 11H32.4999C33.3283 11 33.9999 11.6716 33.9999 12.5C33.9999 13.3284 33.3283 14 32.4999 14H7.49988C6.67145 14 5.99988 13.3284 5.99988 12.5Z" fill="#B5B5B6"/>
<path d="M0.439218 9.56476C-0.146569 8.97897 -0.146569 8.02922 0.439218 7.44344L6.80318 1.07948C7.38896 0.49369 8.33871 0.49369 8.9245 1.07948C9.51029 1.66526 9.51029 2.61501 8.9245 3.2008L2.56054 9.56476C1.97475 10.1505 1.025 10.1505 0.439218 9.56476Z" fill="white"/>
<path d="M0.439333 15.4394C1.02512 14.8536 1.97487 14.8536 2.56065 15.4394L8.92461 21.8034C9.5104 22.3892 9.5104 23.3389 8.92461 23.9247C8.33883 24.5105 7.38908 24.5105 6.80329 23.9247L0.439333 17.5607C-0.146453 16.9749 -0.146453 16.0252 0.439333 15.4394Z" fill="white"/>
</svg>
