<svg id="header-menu" xmlns="http://www.w3.org/2000/svg" width="20" height="16" viewBox="0 0 20 16">
  <path id="패스_12" data-name="패스 12" d="M119,158.8H101a1,1,0,1,1,0-2H119a1,1,0,1,1,0,2Z" transform="translate(-100 -149.802)" fill="#fff"/>
  <path id="패스_13" data-name="패스 13" d="M19.191,2H.809A.922.922,0,0,1,0,1,.922.922,0,0,1,.809,0H19.191A.922.922,0,0,1,20,1,.922.922,0,0,1,19.191,2Z" fill="#fff"/>
  <path id="패스_14" data-name="패스 14" d="M228.629,315.7H211.371c-.755,0-1.371-.449-1.371-1s.616-1,1.371-1h17.258c.755,0,1.371.449,1.371,1S229.384,315.7,228.629,315.7Z" transform="translate(-210 -299.7)" fill="#fff"/>
</svg>
